<?xml version="1.0" encoding="utf-8"?>
<!-- Generator: Adobe Illustrator 26.0.2, SVG Export Plug-In . SVG Version: 6.00 Build 0)  -->
<svg version="1.1" id="Layer_1" xmlns="http://www.w3.org/2000/svg" xmlns:xlink="http://www.w3.org/1999/xlink" x="0px" y="0px"
	 viewBox="0 0 600 600" style="enable-background:new 0 0 600 600;" xml:space="preserve">
<style type="text/css">
	.st0{fill:#FFFFFF;}
	.st1{display:none;fill:#FFFFFF;}
</style>
<g>
	<path class="st0" d="M404.7,328.1l12.5-81.4h-78.1v-52.8c0-22.3,10.9-44,45.9-44h35.5V80.5c0,0-32.2-5.5-63.1-5.5
		C293.1,75,251,114,251,184.6v62.1h-71.5v81.4H251V525h88V328.1H404.7z"/>
</g>
<path class="st1" d="M212.2,90.9c-66.9,0-121.4,54.5-121.4,121.4v175.5c0,66.7,54.5,121.2,121.4,121.2h175.5
	c66.7,0,121.2-54.5,121.2-121.4V212.2c0-66.9-54.5-121.4-121.4-121.4L212.2,90.9L212.2,90.9z M212.2,123.1h175.4
	c49.5,0,89.3,39.7,89.3,89.3v175.4c0,49.5-39.7,89.3-89.1,89.3H212.2c-49.5,0-89.3-39.7-89.3-89.1V212.2
	C123.1,162.7,162.7,123.1,212.2,123.1z M428.6,155.3c-8.9,0-16.1,7.2-16.1,16.1c0,8.9,7.2,16.1,16.1,16.1c8.9,0,16.1-7.2,16.1-16.1
	C444.7,162.4,437.6,155.3,428.6,155.3z M300,187.4c-61.9,0-112.5,50.6-112.5,112.5S238.1,412.5,300,412.5S412.5,361.9,412.5,300
	S361.9,187.4,300,187.4z M300,219.5c44.6,0,80.5,35.8,80.5,80.5c0,44.6-35.8,80.5-80.5,80.5s-80.5-35.8-80.5-80.5
	S255.4,219.5,300,219.5z"/>
<path class="st1" d="M311,71.2c-94.1,0-187,62.7-187,164.2c0,64.5,36.3,101.2,58.3,101.2c9.1,0,14.3-25.3,14.3-32.5
	c0-8.5-21.7-26.7-21.7-62.2c0-73.7,56.1-126,128.7-126c62.4,0,108.6,35.5,108.6,100.7c0,48.7-19.5,140-82.8,140
	c-22.8,0-42.4-16.5-42.4-40.2c0-34.7,24.2-68.2,24.2-104c0-60.7-86.1-49.7-86.1,23.7c0,15.4,1.9,32.5,8.8,46.5
	c-12.7,54.5-38.5,135.6-38.5,191.7c0,17.3,2.5,34.4,4.1,51.7c3.1,3.5,1.6,3.1,6.3,1.4c46.2-63.3,44.6-75.6,65.5-158.4
	c11.3,21.5,40.4,33,63.5,33c97.4,0,141.1-94.9,141.1-180.4C476,130.6,397.4,71.2,311,71.2z"/>
<path class="st1" d="M539,156.5c-17.8,7.8-35.9,13.5-55.8,15.3c19.9-11.5,35.9-30.8,43.7-51.9c-19.9,11.5-39.8,19.2-61.6,23.1
	c-20-19.2-45.9-30.8-73.8-30.8c-53.7,0-97.6,42.4-97.6,94.4c0,7.6,0,15.3,2,21.2c-102.7,0-173.1-57.9-220.9-115.7
	c-10,13.5-14.1,30.8-14.1,48.2c0,32.6,18,61.6,43.9,79c-16-1.8-31.9-5.7-43.9-11.5c0,0,0,0,0,1.8c0,46.3,33.8,84.7,77.8,92.5
	c-8,1.8-16,3.9-26,3.9c-5.8,0-11.8,0-17.8-1.8c12,38.6,67.6,82.8,111.3,82.8C172.5,432,141,453.8,78,453.8c-8,0-1.6,0-17.1,0
	c43.7,26.9,95.6,34.1,149.4,34.1c181.2,0,278.9-144.4,278.9-269.7c0-3.9,0-7.6,0-11.5C509.1,193,525.1,175.8,539,156.5"/>
</svg>
