<svg xmlns="http://www.w3.org/2000/svg" width="40.6" height="30.6" viewBox="0 0 40.6 30.6"><g transform="translate(-1308.635 -2597.222)"><rect width="40" height="30" rx="4.399" transform="translate(1308.935 2597.522)" fill="none" stroke="#888a8a" stroke-miterlimit="10" stroke-width="0.6"/><path d="M1320.235,2618.46v-6.151h19.484l-4.661,4.591,4.459,4.612h-6.352l-1.421-1.355-1.41,1.355h-10.1v-3.052Zm11.537-2.686-1.972-2.13h-7.914v6.574h7.651l2.169-2.157,2.183,2.157h2.038l-3.116-3.327,3.208-3.247h-2.13Zm-4.133,3.129h-4.023v-1.446h4.023v-1.314h-4.023v-1.184h4.023v-1.117l2.984,2.984-2.984,3Z" fill="#686868"/><path d="M1322.233,2612.734h-6.387l4.389-9.2h10.485l1.059,2.033.988-2.033h5.6v9.2h-16.134Zm14.411-7.868h-2.761l-2.077,4.4-2.235-4.4h-2.761v6.376l-2.853-6.376h-2.59l-3.05,6.574h1.867l.618-1.5h3.55l.71,1.5h3.431v-5.351l2.432,5.351h1.6l2.419-5.259v5.259h1.7Zm-14.013,1.088,1.157,2.669h-2.406Z" fill="#686868"/></g></svg>