<svg id="Layer_2" data-name="Layer 2" xmlns="http://www.w3.org/2000/svg" width="40.66" height="30.66" viewBox="0 0 40.66 30.66">
  <g id="Footer">
    <rect id="Rectangle_1859" data-name="Rectangle 1859" width="40" height="30" rx="4.4" transform="translate(0.33 0.33)" fill="none" stroke="#909292" stroke-miterlimit="10" stroke-width="0.66"/>
    <path id="Path_56" data-name="Path 56" d="M7.12,15.861l.247,2.006h8.673l-.286-2.315H11.712v-.286l3.658-2.585-.247-2.022H6.48l.286,2.315h4.051v.293Z" transform="translate(0 2.133)" fill="gray"/>
    <path id="Path_57" data-name="Path 57" d="M19,10.658l.9,7.207h8.673l-.887-7.215Z" transform="translate(-2.859 2.135)" fill="#aeafb1"/>
    <path id="Path_58" data-name="Path 58" d="M40.544,13.227a2.955,2.955,0,0,0-3.2-2.6H31.57l.887,7.23H35.05l-.177-1.443H37.62A2.629,2.629,0,0,0,40.544,13.227Zm-3.2,1.15H34.626l-.208-1.729h2.724a.941.941,0,0,1,1.026.864.772.772,0,0,1-.826.864Z" transform="translate(-5.729 2.143)" fill="gray"/>
    <path id="Path_59" data-name="Path 59" d="M21.768,8.8a1.3,1.3,0,0,0-.17-1.829A1.3,1.3,0,0,0,19.762,6.9a1.3,1.3,0,0,0,.17,1.829A1.312,1.312,0,0,0,21.768,8.8Z" transform="translate(-2.965 3.07)" fill="gray"/>
  </g>
</svg>
