<svg xmlns="http://www.w3.org/2000/svg" width="40.6" height="30.6" viewBox="0 0 40.6 30.6"><g transform="translate(-1208.389 -2597.222)"><rect width="40" height="30" rx="4.399" transform="translate(1208.689 2597.522)" fill="none" stroke="#888a8a" stroke-miterlimit="10" stroke-width="0.6"/><path d="M1240.28,2621.669v.049h.045a.047.047,0,0,0,.025-.006.024.024,0,0,0,.009-.019.023.023,0,0,0-.009-.018.047.047,0,0,0-.025-.006Zm.045-.034a.082.082,0,0,1,.055.016.053.053,0,0,1,.019.042.048.048,0,0,1-.016.038.074.074,0,0,1-.043.018l.06.069h-.047l-.055-.069h-.018v.069h-.039v-.183Zm-.011.246a.145.145,0,0,0,.059-.012.143.143,0,0,0,.048-.033.152.152,0,0,0,.045-.109.152.152,0,0,0-.012-.06.162.162,0,0,0-.033-.049.165.165,0,0,0-.048-.032.144.144,0,0,0-.059-.012.153.153,0,0,0-.061.012.169.169,0,0,0-.049.032.143.143,0,0,0-.032.049.137.137,0,0,0-.012.06.157.157,0,0,0,.044.109.146.146,0,0,0,.049.033.153.153,0,0,0,.061.012Zm0-.351a.188.188,0,0,1,.078.016.213.213,0,0,1,.064.042.186.186,0,0,1,.042.063.177.177,0,0,1,.016.076.183.183,0,0,1-.016.077.2.2,0,0,1-.042.062.231.231,0,0,1-.064.043.2.2,0,0,1-.078.015.211.211,0,0,1-.08-.015.215.215,0,0,1-.064-.043.223.223,0,0,1-.043-.062.2.2,0,0,1-.015-.077.192.192,0,0,1,.015-.076.2.2,0,0,1,.043-.063.2.2,0,0,1,.064-.042.194.194,0,0,1,.08-.016Zm-18.508-.7a.6.6,0,1,1,.6.635.6.6,0,0,1-.6-.635Zm1.606,0v-.992h-.432v.24a.753.753,0,0,0-.626-.29,1.043,1.043,0,0,0,0,2.083.753.753,0,0,0,.626-.29v.24h.432Zm14.576,0a.6.6,0,1,1,.6.635A.6.6,0,0,1,1237.988,2620.826Zm1.606,0v-1.789h-.431v1.037a.754.754,0,0,0-.627-.29,1.043,1.043,0,0,0,0,2.083.754.754,0,0,0,.627-.29v.24h.431Zm-10.828-.656a.493.493,0,0,1,.5.481h-1.029A.51.51,0,0,1,1228.766,2620.17Zm.008-.386a1.042,1.042,0,0,0,.029,2.083,1.2,1.2,0,0,0,.814-.278l-.212-.319a.95.95,0,0,1-.577.207.55.55,0,0,1-.593-.486h1.473c0-.053.008-.108.008-.165A.951.951,0,0,0,1228.774,2619.784Zm5.209,1.042a.6.6,0,1,1,.6.635.6.6,0,0,1-.6-.635Zm1.606,0v-.992h-.432v.24a.753.753,0,0,0-.626-.29,1.043,1.043,0,0,0,0,2.083.753.753,0,0,0,.626-.29v.24h.432Zm-4.042,0a1,1,0,0,0,1.058,1.041,1.04,1.04,0,0,0,.714-.236l-.208-.349a.874.874,0,0,1-.519.179.637.637,0,0,1,0-1.271.874.874,0,0,1,.519.179l.208-.349a1.04,1.04,0,0,0-.714-.236,1,1,0,0,0-1.058,1.042Zm5.561-1.042a.585.585,0,0,0-.523.29v-.24h-.428v1.983h.432v-1.112c0-.328.141-.51.424-.51a.686.686,0,0,1,.269.05l.133-.407a.909.909,0,0,0-.307-.054Zm-11.563.207a1.493,1.493,0,0,0-.809-.207c-.5,0-.826.241-.826.635,0,.323.241.523.684.585l.2.029c.237.033.348.1.348.208,0,.153-.157.241-.452.241a1.058,1.058,0,0,1-.66-.208l-.2.336a1.434,1.434,0,0,0,.859.257c.573,0,.905-.27.905-.647,0-.349-.261-.531-.693-.594l-.2-.029c-.187-.025-.337-.062-.337-.195s.141-.232.378-.232a1.271,1.271,0,0,1,.618.17Zm5.566-.207a.585.585,0,0,0-.523.29v-.24h-.428v1.983h.432v-1.112c0-.328.141-.51.423-.51a.688.688,0,0,1,.27.05l.133-.407a.912.912,0,0,0-.307-.054Zm-3.681.05h-.706v-.6h-.436v.6h-.4v.394h.4v.905c0,.46.179.734.689.734a1.013,1.013,0,0,0,.539-.153l-.124-.37a.8.8,0,0,1-.382.112c-.216,0-.286-.133-.286-.332v-.9h.706Zm-6.45,1.983v-1.245a.738.738,0,0,0-.781-.788.765.765,0,0,0-.7.353.727.727,0,0,0-.655-.353.656.656,0,0,0-.581.294v-.244h-.432v1.983h.435v-1.1a.465.465,0,0,1,.486-.528c.287,0,.432.187.432.523v1.1h.436v-1.1a.468.468,0,0,1,.485-.528c.295,0,.436.187.436.523v1.1Z" fill="#686868"/><path d="M1240.546,2615.22v-.29h-.076l-.087.2-.087-.2h-.076v.29h.054V2615l.081.188h.056l.082-.189v.219Zm-.48,0v-.24h.1v-.049h-.247v.049h.1v.24Z" fill="#ee7f10"/><path d="M1231.957,2616.467h-6.537v-11.749h6.537Z" fill="gray"/><path d="M1225.839,2610.591a7.457,7.457,0,0,1,2.853-5.874,7.471,7.471,0,1,0,0,11.749A7.458,7.458,0,0,1,1225.839,2610.591Z" fill="#686868"/><path d="M1240.774,2610.591a7.472,7.472,0,0,1-12.089,5.875,7.473,7.473,0,0,0,0-11.749,7.471,7.471,0,0,1,12.089,5.874Z" fill="#bfbfbf"/></g></svg>